<svg width="16" height="17" viewBox="0 0 16 17" fill="none" xmlns="http://www.w3.org/2000/svg">
<path fill-rule="evenodd" clip-rule="evenodd" d="M7.99992 1.44226C4.31802 1.44226 1.33325 4.46187 1.33325 8.18675C1.33325 11.9116 4.31802 14.9312 7.99992 14.9312C11.6818 14.9312 14.6666 11.9116 14.6666 8.18675C14.6666 4.46187 11.6818 1.44226 7.99992 1.44226ZM5.52851 5.68649C5.78886 5.42311 6.21097 5.42311 6.47132 5.68649L7.99992 7.23293L9.52851 5.68649C9.78886 5.42311 10.211 5.42311 10.4713 5.68649C10.7317 5.94988 10.7317 6.37692 10.4713 6.64031L8.94273 8.18675L10.4713 9.73319C10.7317 9.99657 10.7317 10.4236 10.4713 10.687C10.211 10.9504 9.78886 10.9504 9.52851 10.687L7.99992 9.14056L6.47132 10.687C6.21097 10.9504 5.78886 10.9504 5.52851 10.687C5.26816 10.4236 5.26816 9.99657 5.52851 9.73319L7.05711 8.18675L5.52851 6.64031C5.26816 6.37692 5.26816 5.94988 5.52851 5.68649Z" fill="white" fill-opacity="0.4"/>
</svg>
