<svg width="49" height="57" viewBox="0 0 49 57" fill="none" xmlns="http://www.w3.org/2000/svg">
<path fill-rule="evenodd" clip-rule="evenodd" d="M29.0533 33.7659C29.0535 33.7657 29.0537 33.7655 29.0538 33.7653L29.0575 33.7419L30.5407 25.1785L35.2103 25.2045C38.5285 25.2218 39.9824 26.6524 39.5719 29.4963C39.1101 32.3748 36.972 33.8574 33.1577 33.9441L29.0269 33.9181L29.0533 33.7659ZM22.9368 18.1848H16.6103L15.5327 24.4534H21.6133L20.4588 30.3579C18.8852 31.4157 17.055 31.9272 14.9682 31.8925C11.5131 31.8405 9.65723 29.725 9.40067 25.5459C9.26383 23.8118 9.43487 21.3841 9.9138 18.2628C10.4783 14.604 11.5302 11.7948 13.0696 9.83531C14.609 7.85848 16.5589 6.91342 18.9194 7.00013C20.5101 7.05215 21.7331 7.54635 22.5883 8.48275C23.4606 9.41914 23.9567 10.9018 24.0764 12.9306L32.4919 12.9566C32.2353 8.79488 30.9867 5.61288 28.746 3.41063C26.5053 1.20837 23.2981 0.0725656 19.1246 0.00320331C14.3524 -0.0834996 10.3158 1.58987 7.01458 5.0233C3.73049 8.45673 1.69505 13.1127 0.908237 18.9911L0.702982 20.5518C0.275367 24.0546 0.523383 27.2019 1.44703 29.9937C2.37068 32.7856 3.91009 34.9618 6.06527 36.5225C8.22045 38.0831 10.8631 38.8808 13.9932 38.9155C15.9188 38.9461 17.7433 38.8111 19.4668 38.5105L16.4807 56.0013H31.4643C35.9971 56.0013 39.5634 55.0129 42.1633 53.0361C44.7803 51.0593 46.2085 48.2414 46.448 44.5826C46.5677 42.6751 46.2171 41.0451 45.396 39.6925C44.5921 38.3226 43.4632 37.3775 42.0093 36.8573C46.0631 35.1926 48.2183 32.3661 48.4749 28.3778C48.6801 25.1524 47.6282 22.6467 45.3191 20.8607C43.0099 19.0746 39.5121 18.1729 34.8254 18.1555L22.9463 18.1295L22.9368 18.1848ZM26.4613 48.9784L28.0263 39.9006L34.4919 39.9266C37.1602 40.0653 38.2549 41.5826 37.7759 44.4785C37.5707 45.8484 36.9207 46.9495 35.826 47.7819C34.7313 48.5969 33.363 49.0044 31.7209 49.0044L26.4613 48.9784Z" fill="white"/>
</svg>
