<svg width="12" height="12" viewBox="0 0 12 12" fill="none" xmlns="http://www.w3.org/2000/svg">
<path d="M7.535 5.625L7.085 6.085C6.725 6.445 6.5 6.75 6.5 7.5H5.5V7.25C5.5 6.695 5.725 6.195 6.085 5.835L6.705 5.205C6.89 5.025 7 4.775 7 4.5C7 3.945 6.55 3.5 6 3.5C5.73478 3.5 5.48043 3.60536 5.29289 3.79289C5.10536 3.98043 5 4.23478 5 4.5H4C4 3.96957 4.21071 3.46086 4.58579 3.08579C4.96086 2.71071 5.46957 2.5 6 2.5C6.53043 2.5 7.03914 2.71071 7.41421 3.08579C7.78929 3.46086 8 3.96957 8 4.5C8 4.94 7.82 5.335 7.535 5.625ZM6.5 9.5H5.5V8.5H6.5M6 1C5.34339 1 4.69321 1.12933 4.08658 1.3806C3.47995 1.63188 2.92876 2.00017 2.46447 2.46447C1.52678 3.40215 1 4.67392 1 6C1 7.32608 1.52678 8.59785 2.46447 9.53553C2.92876 9.99983 3.47995 10.3681 4.08658 10.6194C4.69321 10.8707 5.34339 11 6 11C7.32608 11 8.59785 10.4732 9.53553 9.53553C10.4732 8.59785 11 7.32608 11 6C11 3.235 8.75 1 6 1Z" fill="white" fill-opacity="0.68"/>
</svg>
