<svg width="14" height="14" viewBox="0 0 14 14" fill="none" xmlns="http://www.w3.org/2000/svg">
<path d="M11.9944 11.2045L11.9101 11.1202C11.7979 11.0096 11.6177 11.0096 11.5054 11.1202L11.405 11.2206L10.2653 10.0776C10.3541 9.98742 10.4039 9.86588 10.4039 9.73927C10.4039 9.61265 10.3541 9.49111 10.2653 9.40092L10.1357 9.26171C10.0473 9.17444 9.92813 9.12555 9.80389 9.12555C9.67965 9.12555 9.5605 9.17444 9.47204 9.26171L9.42997 9.30378L8.25453 7.91466L10.7381 5.58007C11.3565 4.93901 12.4995 1.81441 11.8681 1.16663L7.2054 6.67108L2.54272 1.16663C1.91132 1.81418 3.05434 4.93896 3.68247 5.57036L6.16601 7.90495L4.99057 9.29395L4.93875 9.26164C4.85115 9.17914 4.73537 9.13328 4.61503 9.13328C4.49469 9.13328 4.3789 9.17914 4.29119 9.26164L4.14874 9.40085C4.05995 9.49105 4.01019 9.61258 4.01019 9.7392C4.01019 9.86581 4.05995 9.98736 4.14874 10.0775L2.99597 11.2238L2.89558 11.1234C2.78337 11.0127 2.60308 11.0127 2.49087 11.1234L2.41639 11.2044C2.3057 11.3166 2.3057 11.4969 2.41639 11.6091L3.54326 12.736C3.59671 12.79 3.66957 12.8203 3.74556 12.8203C3.82167 12.8203 3.89453 12.79 3.94797 12.736L4.03221 12.6518C4.0862 12.5983 4.11656 12.5253 4.11656 12.4493C4.11656 12.3733 4.0862 12.3005 4.03221 12.247L3.93507 12.1466L5.07482 11.0069C5.16361 11.0971 5.28493 11.1478 5.41156 11.1478C5.5382 11.1478 5.6594 11.0971 5.7483 11.0069L5.91016 10.8806C6.00058 10.7912 6.05143 10.6693 6.05143 10.5422C6.05143 10.4151 6.00058 10.2933 5.91016 10.2039L5.86159 10.1553L7.20539 8.88602L8.55557 10.1586L8.507 10.2072C8.4168 10.2955 8.36541 10.4162 8.36422 10.5425C8.36302 10.6689 8.41203 10.7905 8.5006 10.8807L8.63981 11.0199C8.7286 11.1101 8.84991 11.1608 8.97655 11.1608C9.10318 11.1608 9.22449 11.1101 9.31329 11.0199L10.453 12.1596L10.3559 12.26C10.3019 12.3136 10.2715 12.3864 10.2715 12.4624C10.2715 12.5384 10.3019 12.6113 10.3559 12.6648L10.4401 12.7491V12.7489C10.4936 12.8029 10.5664 12.8333 10.6424 12.8333C10.7185 12.8333 10.7914 12.8029 10.8448 12.7489L11.9717 11.6221C12.032 11.5709 12.0685 11.4972 12.0729 11.4181C12.0771 11.3391 12.0487 11.2619 11.9944 11.2045L11.9944 11.2045Z" fill="#7D7D7D"/>
</svg>
