<svg width="17" height="15" viewBox="0 0 17 15" fill="none" xmlns="http://www.w3.org/2000/svg">
<path d="M0.666016 11.25C0.666016 11.4801 0.852563 11.6667 1.08268 11.6667H2.12435C2.23941 11.6667 2.33268 11.7599 2.33268 11.875C2.33268 11.9901 2.23941 12.0833 2.12435 12.0833H1.91602C1.6859 12.0833 1.49935 12.2699 1.49935 12.5C1.49935 12.7301 1.6859 12.9167 1.91602 12.9167H2.12435C2.23941 12.9167 2.33268 13.0099 2.33268 13.125C2.33268 13.2401 2.23941 13.3333 2.12435 13.3333H1.08268C0.852563 13.3333 0.666016 13.5199 0.666016 13.75C0.666016 13.9801 0.852564 14.1667 1.08268 14.1667H2.66602C2.94216 14.1667 3.16602 13.9428 3.16602 13.6667V11.3333C3.16602 11.0572 2.94216 10.8333 2.66602 10.8333H1.08268C0.852563 10.8333 0.666016 11.0199 0.666016 11.25ZM1.49935 3.75001C1.49935 3.98013 1.6859 4.16667 1.91602 4.16667C2.14613 4.16667 2.33268 3.98013 2.33268 3.75001V1.33334C2.33268 1.0572 2.10882 0.833342 1.83268 0.833342H1.08268C0.852563 0.833342 0.666016 1.01989 0.666016 1.25001C0.666016 1.48013 0.852564 1.66667 1.08268 1.66667C1.3128 1.66667 1.49935 1.85322 1.49935 2.08334V3.75001ZM0.666016 6.25001C0.666016 6.48012 0.852564 6.66667 1.08268 6.66667H1.13857C1.5423 6.66667 1.76011 7.14023 1.49736 7.44677L0.786387 8.27624C0.708712 8.36686 0.666016 8.48228 0.666016 8.60163V8.66667C0.666016 8.94281 0.889873 9.16667 1.16602 9.16667H2.74935C2.97947 9.16667 3.16602 8.98012 3.16602 8.75001C3.16602 8.51989 2.97947 8.33334 2.74935 8.33334H2.69346C2.28973 8.33334 2.07192 7.85978 2.33467 7.55325L3.04564 6.72377C3.12332 6.63315 3.16602 6.51773 3.16602 6.39838V6.33334C3.16602 6.0572 2.94216 5.83334 2.66602 5.83334H1.08268C0.852563 5.83334 0.666016 6.01989 0.666016 6.25001ZM5.33268 1.66667C5.05654 1.66667 4.83268 1.89053 4.83268 2.16667V2.83334C4.83268 3.10948 5.05654 3.33334 5.33268 3.33334H15.9994C16.2755 3.33334 16.4994 3.10948 16.4994 2.83334V2.16668C16.4994 1.89053 16.2755 1.66667 15.9994 1.66667H5.33268ZM4.83268 12.8333C4.83268 13.1095 5.05654 13.3333 5.33268 13.3333H15.9994C16.2755 13.3333 16.4994 13.1095 16.4994 12.8333V12.1667C16.4994 11.8905 16.2755 11.6667 15.9994 11.6667H5.33268C5.05654 11.6667 4.83268 11.8905 4.83268 12.1667V12.8333ZM4.83268 7.83334C4.83268 8.10948 5.05654 8.33334 5.33268 8.33334H15.9994C16.2755 8.33334 16.4994 8.10948 16.4994 7.83334V7.16667C16.4994 6.89053 16.2755 6.66667 15.9994 6.66667H5.33268C5.05654 6.66667 4.83268 6.89053 4.83268 7.16667V7.83334Z" fill="#DADEDF"/>
</svg>
