<svg width="29" height="36" viewBox="0 0 29 36" fill="none" xmlns="http://www.w3.org/2000/svg">
<path d="M14.0571 0C10.2862 0.0503987 6.68912 1.59379 4.05426 4.29189C1.4194 6.98999 -0.0382673 10.6227 0.000764116 14.3937C0.000764116 28.5063 12.9664 35.557 13.4949 35.8493C13.6658 35.948 13.8597 36 14.0571 36C14.2545 36 14.4484 35.948 14.6194 35.8493C15.1704 35.557 28.1135 28.5063 28.1135 14.3937C28.1525 10.6227 26.6949 6.98999 24.06 4.29189C21.4251 1.59379 17.828 0.0503987 14.0571 0ZM14.0571 33.3979C11.6844 31.9473 2.33974 25.5264 2.33974 14.3937C2.30969 11.2509 3.52562 8.22415 5.72151 5.97557C7.91741 3.72699 10.9145 2.43966 14.0571 2.3952C17.1998 2.43966 20.1968 3.72699 22.3927 5.97557C24.5886 8.22415 25.8046 11.2509 25.7745 14.3937C25.7745 25.4814 16.4298 31.9473 14.0571 33.3979Z" fill="#A375F3"/>
<path d="M8.11975 8.45633C6.55678 10.0372 5.68021 12.1707 5.68021 14.3937C5.68021 16.6168 6.55678 18.7502 8.11975 20.3311C9.29426 21.5066 10.791 22.3073 12.4206 22.6319C14.0503 22.9566 15.7396 22.7906 17.2749 22.155C18.8102 21.5195 20.1225 20.4428 21.0458 19.0613C21.9691 17.6797 22.4619 16.0554 22.4619 14.3937C22.4619 12.7321 21.9691 11.1077 21.0458 9.72621C20.1225 8.34468 18.8102 7.26803 17.2749 6.63244C15.7396 5.99685 14.0503 5.83089 12.4206 6.15555C10.791 6.4802 9.29426 7.28089 8.11975 8.45633ZM18.2403 18.6331C17.1147 19.7552 15.5902 20.3852 14.0009 20.3852C12.4116 20.3852 10.8871 19.7552 9.76153 18.6331C8.92366 17.7948 8.35318 16.7268 8.1222 15.5642C7.89123 14.4017 8.01013 13.1968 8.46388 12.1018C8.91763 11.0068 9.68585 10.0709 10.6714 9.41249C11.657 8.75406 12.8157 8.40263 14.0009 8.40263C15.1862 8.40263 16.3449 8.75406 17.3304 9.41249C18.316 10.0709 19.0842 11.0068 19.538 12.1018C19.9917 13.1968 20.1106 14.4017 19.8797 15.5642C19.6487 16.7268 19.0782 17.7948 18.2403 18.6331Z" fill="#A375F3"/>
</svg>
