<svg width="14" height="14" viewBox="0 0 14 14" fill="none" xmlns="http://www.w3.org/2000/svg">
<path d="M2.38631 10.6945L3.54689 8.68433C4.39551 9.56359 5.58631 10.1104 6.90485 10.1104C7.01066 10.1104 7.11569 10.1069 7.21976 10.0999L5.75399 12.6389C5.59098 12.9212 5.17365 12.8896 5.055 12.5859L4.44333 11.0203L2.78166 11.2734C2.45928 11.3225 2.22337 10.9769 2.38638 10.6946L2.38631 10.6945Z" fill="#7D7D7D"/>
<path d="M7.12952 11.034L7.70196 10.0424C8.69971 9.87071 9.58915 9.38212 10.2629 8.68408L11.4234 10.6943C11.5865 10.9766 11.3505 11.3222 11.0281 11.2731L9.36643 11.02L8.75477 12.5856C8.63612 12.8893 8.21888 12.9209 8.05578 12.6386L7.12952 11.034Z" fill="#7D7D7D"/>
<path fill-rule="evenodd" clip-rule="evenodd" d="M6.90487 9.72147C7.09253 9.72147 7.27742 9.7094 7.45874 9.68597C7.61619 9.66557 7.77096 9.63666 7.92251 9.59969C7.93622 9.5963 7.94985 9.59292 7.96348 9.58945C8.78217 9.38104 9.50649 8.93645 10.0598 8.33252C10.7569 7.57147 11.1823 6.55748 11.1823 5.44408C11.1823 3.08159 9.26729 1.16663 6.90489 1.16663C4.54263 1.16663 2.62744 3.08168 2.62744 5.44408C2.62744 6.4776 2.99399 7.42552 3.60419 8.16498C3.65141 8.22209 3.70001 8.27799 3.75001 8.33259C4.53197 9.18626 5.65593 9.72155 6.90488 9.72155L6.90487 9.72147ZM7.07951 3.27285C7.00834 3.12764 6.8014 3.12764 6.73023 3.27285L6.18392 4.38839L4.9591 4.56771C4.80008 4.59106 4.73638 4.78619 4.85103 4.89884L5.7383 5.77031L5.5292 6.99895C5.50212 7.15796 5.66929 7.27888 5.81191 7.20336L6.90489 6.62432L7.99794 7.20336C8.14047 7.27888 8.30765 7.15796 8.28065 6.99895L8.07147 5.77031L8.95873 4.89884C9.0734 4.78618 9.00969 4.59105 8.85067 4.56771L7.62594 4.38839L7.07951 3.27285Z" fill="#7D7D7D"/>
</svg>
