<svg width="12" height="15" viewBox="0 0 12 15" fill="none" xmlns="http://www.w3.org/2000/svg">
<path d="M3.51922 0.294123C3.32992 0.126279 3.04508 0.126279 2.85578 0.294123L0.423348 2.45088C0.0791116 2.7561 0.295 3.325 0.755064 3.325H1.75C2.02614 3.325 2.25 3.54886 2.25 3.825V8.66667C2.25 8.94281 2.47386 9.16667 2.75 9.16667H3.625C3.90114 9.16667 4.125 8.94281 4.125 8.66667V3.825C4.125 3.54886 4.34886 3.325 4.625 3.325H5.61994C6.08 3.325 6.29589 2.7561 5.95165 2.45088L3.51922 0.294123ZM10.25 11.675C9.97386 11.675 9.75 11.4511 9.75 11.175V6.33333C9.75 6.05719 9.52614 5.83333 9.25 5.83333H8.375C8.09886 5.83333 7.875 6.05719 7.875 6.33333V11.175C7.875 11.4511 7.65114 11.675 7.375 11.675H6.38006C5.92 11.675 5.70411 12.2439 6.04835 12.5491L8.48078 14.7059C8.67008 14.8737 8.95492 14.8737 9.14422 14.7059L11.5767 12.5491C11.9209 12.2439 11.705 11.675 11.2449 11.675H10.25Z" fill="#DADEDF"/>
</svg>
