<svg width="12" height="12" viewBox="0 0 12 12" fill="none" xmlns="http://www.w3.org/2000/svg">
<path fill-rule="evenodd" clip-rule="evenodd" d="M11.7334 10.4281L9.25982 7.95467C9.85585 7.09365 10.154 6.1346 10.154 5.07707C10.154 4.38943 10.0205 3.73199 9.75384 3.10453C9.48675 2.47741 9.12627 1.93625 8.67208 1.48206C8.21778 1.02776 7.67718 0.666845 7.04961 0.400195C6.42205 0.133546 5.76472 0 5.07707 0C4.38943 0 3.73199 0.133546 3.10453 0.400195C2.47741 0.666845 1.93625 1.02776 1.48206 1.48206C1.02776 1.93625 0.666845 2.47741 0.400195 3.10453C0.133546 3.73199 0 4.38943 0 5.07707C0 5.76472 0.133546 6.4216 0.400195 7.04917C0.666845 7.67674 1.02776 8.21745 1.48206 8.67164C1.93625 9.12627 2.47741 9.48675 3.10453 9.75384C3.73199 10.0205 4.38943 10.154 5.07707 10.154C6.1346 10.154 7.09409 9.85585 7.95467 9.25937L10.4281 11.7259C10.6009 11.9084 10.8171 12 11.0768 12C11.3271 12 11.5436 11.9084 11.7259 11.7259C11.9088 11.5432 12 11.3266 12 11.0768C12 10.8222 11.9114 10.6057 11.7334 10.4281ZM7.50904 7.50942C6.84852 8.16987 6.05391 8.49998 5.12478 8.49998C4.19565 8.49998 3.40105 8.16952 2.74052 7.50942C2.07999 6.84886 1.75001 6.05422 1.75001 5.12504C1.75001 4.19585 2.07999 3.40075 2.74052 2.74065C3.40105 2.08009 4.19565 1.74998 5.12478 1.74998C6.05391 1.74998 6.84852 2.08009 7.50904 2.74065C8.16946 3.40075 8.50001 4.19585 8.50001 5.12504C8.50001 6.05422 8.16946 6.84886 7.50904 7.50942Z" fill="#DADEDF"/>
</svg>
