<svg width="14" height="14" viewBox="0 0 14 14" fill="none" xmlns="http://www.w3.org/2000/svg">
<path fill-rule="evenodd" clip-rule="evenodd" d="M7 14C10.866 14 14 10.866 14 7C14 3.13401 10.866 0 7 0C3.13401 0 0 3.13401 0 7C0 10.866 3.13401 14 7 14ZM6.25031 3.45978C6.59039 2.89468 7.40965 2.89468 7.74973 3.45978L8.57537 4.83171L10.1353 5.19299C10.7778 5.3418 11.031 6.12096 10.5986 6.61902L9.54899 7.8282L9.68743 9.42341C9.74445 10.0805 9.08166 10.562 8.47438 10.3047L7.00002 9.68013L5.52566 10.3047C4.91838 10.562 4.25558 10.0805 4.31261 9.42341L4.45105 7.8282L3.40141 6.61902C2.96906 6.12096 3.22223 5.3418 3.86475 5.19299L5.42467 4.83171L6.25031 3.45978Z" fill="#7D7D7D"/>
</svg>
