<svg width="52" height="60" viewBox="0 0 52 60" fill="none" xmlns="http://www.w3.org/2000/svg">
<path d="M38.5322 33.9536C36.5822 33.9536 34.6215 34.3929 32.8858 35.2393C32.8751 35.2393 32.8751 35.25 32.8644 35.25C28.3215 37.4465 25.5037 41.9465 25.5037 46.9822V47.0358C25.5144 47.0893 25.5144 47.1536 25.5144 47.2072V47.3143C25.6965 54.3215 31.5144 60 38.5322 60C45.7108 60 51.5501 54.1608 51.5501 46.9822C51.5501 39.7929 45.7108 33.9536 38.5322 33.9536ZM45.2287 45.3643L38.7465 51.8465C38.2965 52.2965 37.7072 52.5108 37.1179 52.5108C36.518 52.5108 35.9287 52.2965 35.4787 51.8465L31.8465 48.2036C30.9465 47.3036 30.9465 45.8465 31.8465 44.9358C32.7465 44.0358 34.2037 44.0358 35.1037 44.9358L37.1179 46.95L41.9608 42.0965C42.8608 41.1965 44.3287 41.1965 45.2287 42.0965C46.1287 43.0072 46.1287 44.4643 45.2287 45.3643Z" fill="#A375F3"/>
<path d="M20.8003 23.2179C27.2075 23.2179 32.4146 18.0107 32.4146 11.6143C32.4254 5.20714 27.2075 0 20.8003 0C14.4039 0 9.19678 5.20714 9.19678 11.6036C9.19678 18.0107 14.4146 23.2179 20.8003 23.2179Z" fill="#343434"/>
<path d="M20.8968 46.9822C20.8968 46.2858 20.929 45.6108 21.0254 44.9358C21.5397 40.2322 23.9183 36.0215 27.5933 33.1286C28.6004 32.3358 29.704 31.6394 30.8933 31.0715C31.3218 30.8679 31.7611 30.6751 32.2111 30.5036C28.8897 28.2001 24.8933 26.9358 20.8218 26.9358C9.77542 26.9358 0.786133 35.9251 0.786133 46.9715V47.2394C0.786133 48.5036 1.8147 49.5429 3.0897 49.5429H21.0897C20.9826 48.8251 20.9183 48.0965 20.9076 47.3572C20.8968 47.2501 20.8968 47.1215 20.8968 46.9822Z" fill="#343434"/>
</svg>
