<svg width="14" height="15" viewBox="0 0 14 15" fill="none" xmlns="http://www.w3.org/2000/svg">
<path d="M7.01273 1.8999C4.02375 1.8999 1.60044 4.42721 1.60044 7.54509C1.60044 8.61162 1.88424 9.60908 2.37709 10.4601L1.40027 13.4887L4.39681 12.4881C5.1722 12.9352 6.06397 13.1903 7.01273 13.1903C10.0021 13.1903 12.4253 10.6626 12.4253 7.54509C12.4253 4.42721 10.0021 1.8999 7.01273 1.8999ZM9.70406 9.68896C9.57673 10.0208 9.00087 10.3236 8.74678 10.3375C8.49296 10.3517 8.48573 10.5443 7.10189 9.9124C5.71823 9.28035 4.88577 7.74354 4.82014 7.64457C4.75445 7.54597 4.28414 6.84146 4.30952 6.13247C4.33506 5.42336 4.70442 5.08881 4.83625 4.94967C4.96794 4.81032 5.11892 4.78535 5.2111 4.78378C5.32007 4.78191 5.39065 4.78036 5.4713 4.78349C5.55187 4.7867 5.6729 4.76577 5.77769 5.0587C5.88242 5.3516 6.13312 6.0715 6.16519 6.14486C6.19723 6.2183 6.21706 6.30333 6.1677 6.39762C6.11818 6.49211 6.09283 6.55114 6.021 6.63257C5.94877 6.714 5.86906 6.81473 5.80463 6.877C5.73277 6.94594 5.65772 7.02113 5.73327 7.1685C5.80877 7.31577 6.06926 7.79854 6.46611 8.19639C6.97614 8.70782 7.41598 8.87746 7.55133 8.95475C7.68705 9.03246 7.76804 9.02382 7.85221 8.93072C7.93598 8.83762 8.21246 8.52341 8.30984 8.38313C8.40717 8.24246 8.49838 8.27001 8.62342 8.32288C8.74838 8.37596 9.41478 8.75115 9.55053 8.82862C9.68612 8.90594 9.77676 8.94578 9.80917 9.00711C9.84158 9.06867 9.83134 9.35713 9.70406 9.68896Z" fill="#0BC43F"/>
</svg>
